<?xml version="1.0" standalone="no"?>
<!DOCTYPE svg PUBLIC "-//W3C//DTD SVG 20010904//EN"
 "http://www.w3.org/TR/2001/REC-SVG-20010904/DTD/svg10.dtd">
<svg version="1.0" xmlns="http://www.w3.org/2000/svg"
 width="1260.000000pt" height="476.000000pt" viewBox="0 0 1260.000000 476.000000"
 preserveAspectRatio="xMidYMid meet">

<g transform="translate(0.000000,476.000000) scale(0.100000,-0.100000)"
fill="#000000" stroke="none">
<path d="M5607 4479 c-58 -14 -77 -27 -77 -54 0 -29 5 -30 77 -9 92 27 143 1
143 -73 0 -26 -4 -42 -10 -38 -5 3 -38 6 -72 7 -106 2 -158 -42 -158 -131 0
-107 128 -145 232 -69 14 10 20 8 36 -12 18 -23 22 -24 47 -10 20 11 25 19 19
35 -4 11 -10 76 -13 145 -8 148 -20 179 -81 204 -44 17 -84 19 -143 5z m121
-225 c35 -10 31 -65 -9 -99 -44 -36 -108 -33 -127 7 -31 66 42 117 136 92z"/>
<path d="M6540 4480 c-49 -12 -90 -61 -90 -108 0 -21 7 -48 16 -60 17 -24 72
-55 119 -66 72 -17 99 -68 53 -100 -28 -20 -108 -21 -153 -2 -39 17 -50 8 -41
-29 12 -49 182 -61 244 -16 38 27 54 77 41 126 -12 41 -38 61 -114 84 -64 20
-95 43 -95 70 0 43 72 62 145 38 38 -14 47 -14 51 -2 11 28 -15 53 -66 64 -57
12 -61 12 -110 1z"/>
<path d="M5875 4471 c-3 -5 17 -83 44 -173 71 -233 64 -220 108 -216 l38 3 36
144 c19 80 38 141 41 135 3 -5 17 -61 32 -124 36 -157 38 -160 81 -160 27 0
38 5 45 23 26 59 111 351 106 363 -7 17 -50 18 -63 2 -6 -7 -25 -71 -43 -143
-18 -71 -37 -136 -40 -144 -5 -9 -19 35 -35 105 -15 65 -31 133 -36 151 -11
34 -36 48 -68 38 -22 -7 -22 -6 -51 -130 -29 -127 -41 -168 -46 -163 -2 2 -20
67 -40 144 -20 76 -41 142 -47 146 -17 11 -55 10 -62 -1z"/>
<path d="M2462 4105 l3 -367 50 -18 c28 -10 192 -62 365 -115 173 -54 321
-102 328 -107 9 -8 12 -127 12 -535 0 -410 3 -524 13 -527 246 -74 685 -212
695 -219 9 -7 12 -128 12 -546 l0 -536 311 -97 c170 -53 317 -94 325 -91 12 4
14 201 14 1432 l0 1427 -87 28 c-83 26 -129 41 -323 102 -44 13 -115 36 -157
49 -86 27 -1518 473 -1546 481 -16 5 -17 -15 -15 -361z"/>
<path d="M6170 3274 c-13 -33 -13 -618 0 -707 11 -78 22 -98 64 -123 37 -22
139 -25 174 -6 20 12 23 20 20 65 -3 50 -4 52 -33 52 -57 1 -55 -11 -55 361 0
219 -4 352 -10 365 -9 16 -22 19 -81 19 -65 0 -70 -1 -79 -26z"/>
<path d="M8111 3286 c-8 -10 -11 -56 -10 -148 0 -73 0 -132 -2 -131 -195 106
-376 1 -404 -235 -17 -148 53 -293 165 -340 55 -23 160 -12 211 22 22 15 42
26 42 24 19 -38 27 -43 72 -46 27 -2 59 -1 72 3 l23 5 -2 428 -3 427 -76 3
c-57 2 -79 -1 -88 -12z m-46 -380 l35 -15 0 -154 c0 -179 0 -179 -89 -185 -50
-4 -61 -1 -89 23 -42 35 -56 89 -49 189 6 84 23 120 68 143 32 17 82 16 124
-1z"/>
<path d="M5782 3245 c-69 -20 -105 -39 -154 -83 -52 -47 -83 -96 -102 -163
-53 -186 -10 -402 96 -494 23 -19 67 -45 97 -57 103 -39 343 -34 386 8 16 17
21 100 6 123 -7 11 -17 11 -62 1 -181 -44 -313 9 -349 139 -16 57 -12 192 7
251 20 62 73 112 139 130 43 12 160 9 227 -6 l27 -6 0 66 0 67 -37 16 c-54 22
-215 27 -281 8z"/>
<path d="M6623 3032 c-108 -38 -166 -115 -184 -239 -11 -76 3 -177 31 -233 27
-53 101 -115 157 -131 110 -32 239 -7 307 59 65 62 88 126 88 242 0 85 -3 106
-27 158 -15 33 -39 71 -53 85 -70 67 -219 95 -319 59z m158 -128 c45 -23 69
-83 69 -174 0 -83 -24 -151 -58 -169 -12 -6 -41 -11 -65 -11 -83 0 -123 72
-115 205 5 80 26 128 66 149 35 20 66 20 103 0z"/>
<path d="M7097 3024 c-4 -4 -7 -118 -7 -254 0 -240 1 -248 23 -280 40 -59 69
-74 146 -74 58 0 79 5 137 34 38 19 72 37 77 38 4 2 7 -5 7 -16 0 -32 24 -43
87 -40 l58 3 0 295 0 295 -80 0 -80 0 -3 -221 -2 -220 -36 -17 c-50 -24 -116
-22 -140 4 -17 19 -20 43 -24 238 l-5 216 -75 3 c-42 1 -79 0 -83 -4z"/>
<path d="M7967 2314 c-4 -4 -7 -174 -7 -378 0 -343 2 -374 19 -413 25 -54 62
-73 141 -73 88 0 100 9 100 75 l0 55 -34 0 c-19 0 -38 6 -43 13 -4 6 -10 172
-13 367 l-5 355 -75 3 c-42 1 -79 0 -83 -4z"/>
<path d="M5529 2208 c-5 -300 0 -741 9 -750 17 -17 356 -4 419 16 97 31 186
121 215 219 17 55 17 279 0 334 -17 58 -69 131 -120 170 -70 53 -121 63 -334
63 l-188 0 -1 -52z m352 -93 c91 -33 121 -88 127 -235 8 -211 -57 -290 -240
-290 l-68 0 0 270 0 270 69 0 c38 0 88 -7 112 -15z"/>
<path d="M11807 2203 c-3 -4 -10 -40 -17 -80 l-12 -72 -41 -8 c-46 -10 -65
-39 -53 -86 5 -22 12 -26 49 -29 l42 -3 2 -183 c2 -200 7 -222 66 -266 23 -17
46 -22 120 -24 51 -2 105 1 120 7 27 10 28 13 25 68 l-3 58 -58 -3 c-94 -6
-97 -1 -97 189 l0 158 78 3 77 3 0 55 0 55 -77 3 -77 3 -3 77 -3 77 -67 3
c-36 2 -68 -1 -71 -5z"/>
<path d="M6430 2050 c-40 -13 -67 -32 -100 -68 -53 -57 -69 -99 -77 -203 -11
-142 45 -261 144 -311 43 -20 61 -23 168 -22 81 0 133 6 160 16 40 15 40 15
40 69 0 62 19 56 -142 43 -129 -11 -189 20 -207 104 l-8 32 174 0 c122 0 178
4 186 12 15 15 16 149 1 201 -33 121 -188 179 -339 127z m167 -115 c20 -14 43
-69 43 -102 0 -10 -30 -13 -116 -13 l-116 0 7 33 c3 17 22 47 41 65 27 26 42
32 77 32 23 0 52 -7 64 -15z"/>
<path d="M7550 2057 c-34 -8 -59 -24 -100 -66 -63 -64 -78 -100 -87 -212 -11
-142 45 -261 144 -311 43 -20 61 -23 168 -22 81 0 133 6 160 16 40 15 40 15
40 69 0 62 19 56 -142 43 -129 -11 -190 20 -208 104 l-7 32 176 0 c204 0 196
-4 196 107 0 91 -14 137 -57 184 -56 62 -165 84 -283 56z m165 -132 c14 -13
25 -32 25 -42 0 -10 3 -28 6 -40 6 -23 6 -23 -111 -23 l-117 0 6 33 c3 18 21
46 41 65 46 42 112 46 150 7z"/>
<path d="M8412 2052 c-64 -21 -126 -77 -155 -141 -18 -38 -22 -65 -22 -157 0
-103 2 -114 30 -169 55 -108 152 -154 296 -142 86 7 128 26 178 77 74 76 101
224 64 354 -23 83 -94 157 -172 180 -69 20 -151 19 -219 -2z m167 -127 c45
-23 66 -77 66 -170 0 -58 -5 -90 -19 -118 -44 -89 -158 -89 -202 0 -26 53 -26
183 0 236 30 62 95 84 155 52z"/>
<path d="M9126 2050 c-26 -10 -56 -26 -65 -35 -16 -14 -19 -13 -29 10 -11 23
-17 25 -77 25 l-65 0 2 -417 3 -418 70 -3 c93 -4 95 -1 95 155 l0 123 43 -21
c87 -45 224 -24 283 43 93 105 112 308 41 443 -52 100 -182 141 -301 95z m124
-138 c36 -37 54 -101 47 -178 -11 -140 -87 -193 -209 -145 l-28 11 0 155 0
156 33 14 c17 8 54 14 80 15 40 0 53 -5 77 -28z"/>
<path d="M9815 2056 c-22 -7 -59 -22 -81 -34 l-41 -21 -11 24 c-11 23 -17 25
-77 25 l-65 0 2 -297 3 -298 70 -3 c57 -2 72 0 82 14 10 13 13 74 13 230 l0
212 40 16 c54 21 103 20 131 -3 24 -19 24 -23 29 -243 l5 -223 68 -3 c42 -2
74 2 83 9 11 9 14 54 14 230 l0 219 27 11 c54 20 111 23 138 5 l25 -16 0 -218
c0 -156 3 -221 12 -230 18 -18 142 -16 157 2 9 11 11 79 9 253 -3 217 -5 241
-23 272 -36 62 -66 76 -159 76 -72 0 -90 -4 -146 -32 l-65 -32 -25 24 c-48 46
-131 58 -215 31z"/>
<path d="M10682 2051 c-64 -22 -105 -59 -140 -126 -21 -41 -27 -67 -30 -146
-5 -119 12 -187 64 -247 63 -74 99 -87 244 -86 93 0 135 4 163 17 36 16 37 17
37 73 l0 56 -32 -6 c-18 -3 -71 -9 -118 -12 -125 -9 -174 17 -200 105 l-9 31
180 0 179 0 10 26 c30 77 -1 219 -60 275 -62 60 -183 76 -288 40z m182 -132
c17 -20 26 -43 26 -65 l0 -34 -116 0 c-115 0 -115 0 -108 23 24 77 58 107 125
107 40 0 51 -4 73 -31z"/>
<path d="M11375 2051 c-28 -9 -62 -24 -75 -34 -32 -22 -35 -22 -48 8 -11 23
-17 25 -76 25 -58 0 -64 -2 -70 -22 -10 -38 -7 -525 4 -552 9 -25 14 -26 79
-26 59 0 72 3 81 19 6 12 10 103 10 226 l0 206 43 19 c46 21 98 25 127 10 33
-18 40 -66 40 -270 0 -224 -6 -210 85 -210 91 0 85 -19 85 253 0 223 -2 244
-21 283 -37 78 -147 105 -264 65z"/>
<path d="M6775 2023 c3 -16 17 -56 31 -90 13 -35 35 -91 48 -125 32 -82 68
-176 101 -263 15 -38 34 -76 43 -82 9 -7 43 -13 77 -13 71 0 83 9 108 80 9 25
30 81 47 125 17 44 40 103 50 130 10 28 33 86 50 130 18 44 34 93 37 108 l5
28 -82 -3 c-61 -2 -85 -7 -91 -18 -5 -8 -34 -104 -66 -212 -35 -118 -61 -192
-65 -184 -4 8 -33 100 -63 206 -30 106 -58 196 -61 201 -3 5 -44 9 -91 9 l-85
0 7 -27z"/>
<path d="M6256 1329 c-22 -17 -26 -28 -26 -69 0 -41 4 -52 26 -69 31 -25 83
-27 123 -6 32 16 41 33 41 75 0 42 -9 59 -41 75 -40 21 -92 19 -123 -6z"/>
<path d="M5535 1281 c-4 -8 -9 -648 -6 -779 1 -22 3 -23 84 -20 l82 3 5 184 5
184 90 -109 c50 -60 119 -144 154 -186 l62 -78 95 0 c114 0 118 8 47 89 -92
105 -283 336 -283 343 0 3 68 82 150 175 83 92 149 175 147 183 -2 12 -20 16
-81 18 -94 3 -78 16 -254 -192 l-127 -149 -5 169 -5 169 -77 3 c-44 2 -79 -1
-83 -7z"/>
<path d="M6572 1228 c-5 -7 -15 -45 -22 -84 -13 -71 -13 -72 -47 -77 -46 -8
-63 -23 -63 -57 0 -49 9 -60 50 -60 l38 0 4 -177 c3 -156 6 -183 24 -218 33
-63 72 -80 185 -80 119 0 131 7 127 79 l-3 51 -53 -3 c-36 -3 -60 1 -77 12
-25 16 -25 17 -25 176 l0 159 78 3 77 3 0 60 0 60 -77 3 -78 3 0 67 c0 40 -5
73 -12 80 -16 16 -113 16 -126 0z"/>
<path d="M6247 1074 c-4 -4 -7 -140 -7 -301 l0 -294 83 3 82 3 0 295 0 295
-75 3 c-42 1 -79 0 -83 -4z"/>
</g>
</svg>
