<?xml version="1.0" standalone="no"?>
<!DOCTYPE svg PUBLIC "-//W3C//DTD SVG 20010904//EN"
 "http://www.w3.org/TR/2001/REC-SVG-20010904/DTD/svg10.dtd">
<svg version="1.0" xmlns="http://www.w3.org/2000/svg"
 width="1600.000000pt" height="900.000000pt" viewBox="0 0 1600.000000 900.000000"
 preserveAspectRatio="xMidYMid meet">

<g transform="translate(0.000000,900.000000) scale(0.100000,-0.100000)"
fill="#000000" stroke="none">
<path d="M7870 7946 c-36 -20 -186 -96 -335 -171 -148 -75 -277 -140 -285
-145 -8 -4 -40 -20 -70 -35 -30 -14 -62 -30 -70 -36 -8 -5 -26 -13 -40 -19
-14 -5 -33 -14 -42 -20 -28 -16 -34 -19 -363 -185 -170 -86 -317 -161 -325
-165 -8 -5 -40 -21 -70 -36 -93 -44 -114 -55 -130 -64 -8 -5 -61 -32 -116 -60
-56 -27 -105 -57 -108 -66 -10 -26 -7 -2890 3 -2917 5 -14 22 -30 38 -36 15
-6 36 -15 46 -21 45 -26 54 -31 77 -40 14 -6 32 -14 40 -20 8 -5 40 -21 70
-35 30 -14 62 -30 70 -35 8 -4 186 -95 395 -200 946 -478 1165 -589 1229 -623
38 -21 73 -34 78 -29 4 4 7 1128 6 2497 -3 2204 -5 2490 -18 2492 -8 2 -44
-12 -80 -31z m-500 -2606 c0 -1014 -2 -1159 -15 -1170 -12 -10 -29 -8 -87 10
-40 12 -88 28 -106 36 -18 8 -41 14 -51 14 -11 0 -43 8 -73 19 -29 10 -75 25
-103 33 -128 38 -202 61 -230 70 -16 5 -52 16 -80 23 -66 18 -143 41 -180 54
-16 6 -64 20 -105 32 -77 22 -94 29 -142 55 l-28 15 0 953 c0 839 2 955 15
960 17 6 47 -3 41 -13 -3 -4 10 -7 27 -8 69 -2 191 -18 205 -27 5 -3 42 -8 83
-11 41 -3 94 -10 119 -16 37 -8 52 -7 75 5 17 9 42 16 57 16 15 0 47 6 70 14
24 8 61 18 83 21 22 4 60 13 85 20 25 7 63 16 85 20 22 4 60 13 85 20 75 22
144 32 158 22 9 -8 12 -253 12 -1167z"/>
<path d="M8571 6811 c-8 -5 -11 -50 -9 -146 l3 -138 45 -12 c25 -7 88 -22 140
-34 52 -12 120 -28 150 -36 30 -7 78 -19 105 -25 114 -26 141 -32 168 -38 l28
-7 -1 -875 c0 -481 4 -881 8 -888 5 -8 47 -16 110 -21 55 -5 105 -12 110 -15
5 -3 52 -10 103 -16 149 -17 162 -19 202 -26 l37 -7 0 961 c0 710 -3 963 -11
968 -7 4 -25 8 -41 10 -16 2 -36 11 -44 19 -9 8 -25 15 -37 15 -12 0 -35 7
-50 15 -15 8 -45 17 -65 21 -20 4 -49 13 -64 20 -15 8 -36 14 -48 14 -12 0
-34 7 -51 15 -16 9 -48 20 -72 25 -64 14 -150 39 -172 50 -11 5 -38 14 -60 19
-22 5 -53 14 -70 19 -16 6 -64 20 -105 32 -41 12 -88 26 -105 32 -16 5 -48 14
-70 19 -22 5 -49 13 -60 18 -32 15 -62 19 -74 12z"/>
<path d="M5341 2079 l-21 -8 0 -534 c0 -401 3 -536 12 -545 8 -8 46 -12 104
-12 75 0 93 3 98 16 3 9 6 254 6 544 0 412 -3 531 -12 537 -17 10 -159 12
-187 2z"/>
<path d="M8032 2074 c-21 -15 -22 -21 -22 -169 0 -85 -4 -156 -9 -159 -5 -3
-24 2 -42 12 -26 13 -59 17 -134 17 -85 0 -107 -4 -149 -24 -91 -45 -147 -114
-186 -233 -20 -59 -22 -81 -17 -180 5 -120 19 -166 69 -245 71 -109 224 -160
354 -117 27 9 56 22 64 29 21 18 60 28 60 16 0 -28 33 -41 106 -41 127 0 114
-61 114 555 0 616 12 555 -112 555 -50 0 -81 -5 -96 -16z m-111 -475 c70 -24
94 -68 106 -191 6 -68 -15 -173 -43 -216 -24 -36 -97 -65 -144 -57 -114 19
-179 183 -134 335 20 68 44 100 92 122 44 21 76 22 123 7z"/>
<path d="M13498 2079 c-15 -8 -18 -24 -18 -82 0 -44 5 -78 12 -85 13 -13 163
-17 192 -6 13 5 16 22 16 85 0 67 -3 80 -19 89 -25 13 -161 13 -183 -1z"/>
<path d="M3235 2040 c-96 -13 -162 -39 -214 -86 -75 -67 -95 -112 -95 -214 -1
-99 19 -148 81 -199 39 -32 153 -91 176 -91 6 0 44 -9 82 -21 201 -61 225 -78
232 -156 2 -28 -2 -58 -9 -73 -46 -87 -274 -83 -334 5 -11 15 -31 41 -46 56
-25 27 -31 29 -110 29 -84 0 -108 -9 -108 -38 0 -33 54 -127 98 -171 60 -60
118 -86 235 -108 84 -15 96 -15 189 1 55 10 118 26 141 36 62 28 124 86 154
144 36 69 39 199 6 262 -43 82 -128 139 -273 183 -41 12 -106 32 -145 44 -85
26 -121 51 -135 92 -14 42 8 94 48 118 45 26 153 23 203 -5 22 -12 42 -32 45
-44 3 -12 16 -32 28 -43 21 -20 33 -21 117 -19 l94 3 3 31 c6 62 -64 162 -148
211 -73 43 -214 67 -315 53z"/>
<path d="M4578 2020 c-63 -21 -92 -37 -156 -88 -43 -34 -114 -132 -127 -174
-4 -13 -11 -28 -15 -33 -11 -14 -40 -180 -40 -230 0 -61 30 -216 46 -239 8
-11 14 -26 14 -33 0 -16 65 -110 97 -140 70 -66 226 -123 336 -123 51 1 193
32 227 51 65 37 109 73 143 119 43 58 82 149 69 162 -5 5 -56 7 -113 6 l-104
-3 -17 -37 c-28 -60 -120 -117 -187 -118 -42 0 -135 30 -161 53 -39 34 -67 78
-89 142 -29 83 -30 256 -1 338 35 100 64 135 145 173 88 41 225 8 272 -66 54
-85 44 -80 152 -80 116 0 121 5 91 80 -50 128 -127 198 -263 240 -82 26 -238
26 -319 0z"/>
<path d="M802 2007 c-12 -13 -22 -30 -22 -38 -1 -8 -8 -32 -16 -54 -9 -22 -19
-53 -24 -70 -5 -16 -36 -109 -70 -205 -34 -96 -66 -192 -71 -213 -5 -21 -13
-45 -18 -55 -5 -9 -16 -37 -24 -62 -7 -25 -33 -102 -57 -171 -24 -70 -40 -134
-37 -143 5 -13 23 -16 101 -16 l96 0 19 38 c10 20 23 53 29 72 15 48 35 102
45 118 6 9 55 12 186 12 157 0 180 -2 194 -17 8 -10 29 -58 45 -107 16 -49 38
-96 48 -103 25 -18 197 -18 213 0 10 13 4 35 -70 237 -11 30 -24 69 -29 85 -5
17 -20 62 -35 100 -14 39 -39 108 -55 155 -16 47 -48 137 -70 200 -23 63 -45
128 -51 145 -5 16 -18 49 -29 72 l-20 43 -128 0 c-121 0 -130 -1 -150 -23z
m148 -188 c0 -6 6 -25 14 -42 7 -18 33 -93 56 -167 23 -74 46 -146 52 -159 14
-36 -2 -41 -135 -41 -140 0 -140 0 -108 104 13 39 29 91 37 116 7 25 23 73 34
108 11 34 20 69 20 77 0 8 7 15 15 15 8 0 15 -5 15 -11z"/>
<path d="M1430 2015 c-10 -12 -10 -24 -1 -53 6 -20 15 -55 21 -77 16 -68 31
-128 46 -180 13 -50 34 -130 59 -235 35 -145 44 -179 55 -225 7 -27 21 -79 32
-114 10 -35 18 -74 18 -87 0 -13 9 -33 20 -44 17 -17 33 -20 118 -20 113 0
126 7 137 75 4 22 13 60 20 85 8 25 23 86 35 135 11 50 27 113 35 140 14 51
49 197 60 248 12 57 38 7 72 -138 8 -33 20 -87 28 -120 14 -58 21 -87 51 -205
8 -30 19 -77 24 -103 6 -27 17 -64 25 -83 l14 -34 103 0 c57 0 109 4 116 8 12
8 27 54 56 172 8 30 24 89 35 130 12 41 26 95 32 120 5 25 15 63 23 85 14 40
29 96 46 170 6 22 17 64 25 93 70 244 70 244 49 259 -21 15 -141 18 -178 3
-18 -7 -27 -19 -31 -47 -4 -21 -13 -60 -20 -88 -7 -27 -23 -95 -35 -150 -12
-55 -28 -125 -36 -155 -19 -78 -35 -155 -48 -233 -6 -37 -15 -68 -21 -68 -11
0 -48 124 -90 306 -8 33 -23 98 -35 145 -11 47 -25 108 -31 135 -13 64 -37
136 -51 152 -14 18 -172 18 -186 0 -6 -7 -20 -48 -32 -92 -12 -44 -28 -101
-36 -126 -8 -26 -14 -54 -14 -64 0 -9 -8 -47 -19 -83 -18 -67 -31 -118 -56
-222 -41 -171 -43 -176 -55 -164 -10 10 -17 39 -39 159 -6 33 -18 92 -26 130
-8 39 -23 122 -35 185 -30 165 -53 263 -63 278 -15 19 -201 17 -217 -3z"/>
<path d="M8465 2018 c-3 -7 -4 -242 -3 -523 l3 -510 100 0 100 0 5 195 c3 107
9 201 13 208 6 9 63 12 227 12 185 0 221 2 234 16 20 20 23 148 4 161 -7 4
-116 10 -243 13 l-230 5 -3 109 c-2 71 1 113 9 122 9 11 58 14 248 14 171 0
240 3 249 12 7 7 12 40 12 79 0 104 19 99 -383 99 -261 0 -339 -3 -342 -12z"/>
<path d="M13003 1973 c-9 -3 -13 -31 -13 -88 0 -110 -2 -115 -55 -115 -63 0
-79 -19 -72 -91 6 -73 10 -79 55 -79 68 0 66 7 72 -268 l5 -249 28 -40 c29
-42 49 -54 126 -73 50 -13 135 -5 169 16 18 12 22 23 22 67 0 62 -11 77 -57
77 -20 0 -41 8 -53 20 -19 19 -20 33 -20 223 0 145 3 206 12 215 7 7 38 12 69
12 43 0 58 4 63 16 11 29 6 131 -7 142 -7 6 -40 12 -72 14 l-60 3 -3 90 c-2
70 -6 93 -19 103 -16 12 -164 16 -190 5z"/>
<path d="M5975 1769 c-195 -46 -308 -242 -274 -476 18 -121 71 -209 163 -271
85 -57 214 -76 324 -46 154 42 245 149 272 320 37 231 -78 432 -270 473 -60
13 -159 13 -215 0z m170 -173 c75 -35 95 -81 95 -222 0 -94 -3 -115 -22 -151
-31 -57 -71 -85 -127 -90 -39 -4 -52 0 -87 25 -66 48 -84 94 -84 213 0 140 27
197 110 233 47 20 57 20 115 -8z"/>
<path d="M9560 1770 c-275 -57 -381 -464 -180 -694 83 -95 267 -141 396 -100
91 29 146 67 198 137 60 80 79 160 73 292 -4 85 -9 110 -35 165 -38 80 -99
143 -171 177 -43 21 -73 27 -145 29 -50 2 -111 -1 -136 -6z m184 -179 c19 -10
42 -38 59 -71 24 -47 27 -65 27 -144 0 -75 -4 -100 -24 -143 -55 -118 -184
-137 -260 -38 -44 57 -57 165 -35 276 25 123 129 177 233 120z"/>
<path d="M10575 1769 c-22 -5 -61 -28 -87 -50 -52 -44 -68 -44 -68 2 0 37 -27
49 -116 49 -113 0 -104 35 -104 -393 0 -277 3 -376 12 -385 13 -13 175 -17
194 -4 7 4 13 82 16 224 5 198 8 221 27 259 12 23 32 50 44 60 23 19 111 49
146 49 29 0 41 29 41 100 0 99 -13 110 -105 89z"/>
<path d="M11130 1768 c-19 -5 -51 -23 -71 -39 -44 -35 -59 -37 -59 -6 0 13 -5
28 -12 35 -13 13 -135 17 -175 6 l-23 -6 0 -377 c0 -280 3 -380 12 -389 8 -8
45 -12 100 -12 76 0 89 2 98 19 6 12 10 109 10 247 0 296 9 330 95 354 38 11
49 10 82 -6 58 -29 62 -52 62 -340 1 -180 4 -253 13 -262 13 -13 165 -17 185
-4 8 5 12 82 15 257 4 286 11 319 74 348 19 10 44 17 55 17 27 0 69 -23 94
-50 19 -21 20 -39 24 -294 2 -189 7 -273 15 -278 6 -4 48 -8 92 -8 60 0 85 4
94 15 9 11 11 87 8 312 -4 290 -4 299 -27 342 -51 92 -118 131 -226 131 -72 0
-127 -18 -184 -61 l-51 -39 -43 38 c-23 22 -57 44 -76 50 -41 14 -132 14 -181
0z"/>
<path d="M12301 1769 c-84 -16 -161 -83 -187 -162 -23 -68 -13 -77 91 -77 l82
0 31 44 c25 35 39 45 71 50 84 13 144 -17 155 -80 12 -61 -4 -74 -92 -74 -247
0 -392 -96 -392 -258 0 -145 116 -252 272 -252 64 0 144 24 175 53 l23 20 24
-26 c23 -25 31 -27 110 -27 63 0 87 4 93 14 4 8 6 149 3 313 -5 265 -8 302
-24 333 -40 75 -94 113 -181 129 -68 13 -190 13 -254 0z m239 -448 c16 -31 0
-108 -31 -150 -31 -44 -78 -58 -150 -46 -93 16 -108 151 -21 188 57 24 63 25
129 26 52 1 64 -2 73 -18z"/>
<path d="M14130 1770 c-117 -24 -208 -110 -258 -243 -43 -116 -23 -308 42
-402 54 -77 108 -117 199 -145 75 -24 166 -25 233 -4 188 60 274 187 274 401
-1 138 -32 223 -111 302 -66 66 -135 93 -243 97 -50 2 -111 -1 -136 -6z m142
-160 c86 -24 132 -107 131 -240 -1 -97 -28 -167 -81 -207 -121 -92 -252 16
-252 206 0 147 50 226 160 250 3 0 22 -4 42 -9z"/>
<path d="M15122 1769 c-19 -6 -52 -23 -74 -39 -48 -35 -58 -37 -58 -11 0 37
-27 51 -100 51 -38 0 -80 -4 -94 -10 l-26 -10 0 -374 c0 -361 1 -376 19 -386
28 -14 174 -13 189 2 9 9 12 71 12 217 0 234 10 316 45 353 57 62 165 58 205
-7 19 -30 20 -50 20 -292 0 -188 3 -262 12 -271 18 -18 182 -16 198 3 9 11 11
89 8 312 l-4 298 -28 47 c-33 57 -88 105 -136 118 -43 12 -144 11 -188 -1z"/>
<path d="M6636 1762 c-16 -3 -17 -27 -14 -315 3 -298 4 -314 25 -352 65 -121
218 -170 345 -110 29 13 60 30 69 36 12 9 21 7 42 -15 24 -24 33 -26 104 -26
43 0 84 4 92 9 11 7 13 76 12 382 -2 335 -3 375 -18 387 -20 14 -140 16 -177
2 l-26 -10 0 -242 c0 -137 -5 -259 -10 -280 -12 -41 -57 -81 -102 -92 -37 -9
-90 15 -117 52 -20 29 -21 40 -21 289 0 142 -4 263 -8 269 -7 11 -158 23 -196
16z"/>
<path d="M13498 1759 c-17 -9 -18 -38 -18 -384 0 -432 -10 -395 110 -395 120
0 110 -38 110 399 l0 379 -31 6 c-48 9 -152 7 -171 -5z"/>
</g>
</svg>
