<?xml version="1.0" standalone="no"?>
<!DOCTYPE svg PUBLIC "-//W3C//DTD SVG 20010904//EN"
 "http://www.w3.org/TR/2001/REC-SVG-20010904/DTD/svg10.dtd">
<svg version="1.0" xmlns="http://www.w3.org/2000/svg"
 width="1952.000000pt" height="2064.000000pt" viewBox="0 0 1952.000000 2064.000000"
 preserveAspectRatio="xMidYMid meet">

<g transform="translate(0.000000,2064.000000) scale(0.100000,-0.100000)"
fill="#000000" stroke="none">
<path d="M4760 17096 l0 -1792 1545 -892 c849 -491 1547 -892 1550 -892 3 0 4
806 3 1791 l-3 1790 -1420 820 c-781 451 -1477 853 -1547 894 l-128 74 0
-1793z"/>
<path d="M8212 15089 l3 -1792 1530 -884 c842 -486 1538 -888 1548 -894 16 -9
17 79 17 1783 l0 1793 -1541 890 c-848 490 -1546 892 -1550 893 -5 2 -8 -775
-7 -1789z"/>
<path d="M13203 15988 l-1543 -891 0 -1793 0 -1792 998 576 c548 316 1245 718
1547 893 l550 317 3 1791 c1 985 -1 1791 -5 1791 -5 -1 -702 -402 -1550 -892z"/>
<path d="M8212 11109 l3 -1792 1530 -884 c842 -486 1538 -889 1548 -894 16 -9
17 79 17 1783 l0 1793 -1541 890 c-848 490 -1546 892 -1550 893 -5 2 -8 -781
-7 -1789z"/>
<path d="M4200 5693 l0 -473 90 0 90 0 0 234 0 234 51 21 c64 28 143 38 164
21 13 -10 15 -51 15 -261 l0 -249 90 0 91 0 -3 288 c-3 260 -5 291 -22 326
-28 56 -87 81 -173 72 -55 -6 -141 -28 -195 -51 -17 -7 -18 4 -18 138 l0 146
-32 6 c-18 3 -59 9 -90 14 l-58 8 0 -474z"/>
<path d="M5515 6149 c-129 -12 -218 -68 -250 -158 -20 -57 -22 -550 -3 -615
17 -55 82 -118 144 -140 66 -24 235 -32 339 -17 45 7 86 16 93 20 8 5 8 25 1
76 -5 38 -11 70 -13 73 -2 2 -39 -1 -81 -7 -107 -15 -209 -14 -251 4 -58 24
-64 53 -64 295 0 310 5 317 225 307 71 -3 140 -9 152 -12 19 -6 22 -2 27 37 4
23 7 59 9 78 l2 35 -58 11 c-76 16 -185 20 -272 13z"/>
<path d="M2070 5685 l0 -466 93 3 92 3 3 193 2 192 170 0 170 0 2 -192 3 -193
93 -3 92 -3 0 466 0 465 -95 0 -95 0 0 -195 0 -195 -170 0 -170 0 0 195 0 195
-95 0 -95 0 0 -465z"/>
<path d="M4930 6070 l0 -80 90 0 90 0 0 80 0 80 -90 0 -90 0 0 -80z"/>
<path d="M3012 5896 c-41 -8 -76 -17 -79 -20 -3 -2 -2 -32 2 -65 8 -69 -2 -65
125 -52 101 11 178 1 197 -25 7 -10 13 -43 13 -75 l0 -57 -127 -3 c-145 -4
-181 -18 -218 -79 -31 -53 -28 -170 4 -227 46 -81 161 -106 281 -62 93 34 90
33 90 10 0 -20 5 -21 75 -21 l75 0 0 251 c0 146 -4 268 -11 293 -13 53 -49 93
-107 118 -59 26 -218 33 -320 14z m258 -472 c0 -42 -2 -46 -35 -60 -42 -17
-126 -19 -143 -2 -13 13 -17 90 -5 101 3 4 46 7 95 7 l88 0 0 -46z"/>
<path d="M3717 5896 c-94 -26 -128 -70 -135 -171 -6 -83 11 -139 51 -169 18
-13 71 -35 119 -49 118 -33 138 -47 138 -97 0 -29 -5 -42 -19 -50 -32 -16
-139 -11 -264 13 -13 2 -38 -121 -26 -129 21 -13 168 -34 238 -34 179 0 251
61 251 215 0 123 -33 158 -188 199 -52 14 -100 30 -108 37 -8 6 -14 29 -14 50
0 57 25 64 164 50 60 -6 111 -10 112 -8 2 1 6 32 10 68 l6 66 -28 6 c-68 15
-259 17 -307 3z"/>
<path d="M6133 5900 c-95 -19 -170 -83 -193 -165 -18 -65 -10 -351 12 -390 24
-46 68 -86 118 -109 38 -18 64 -21 165 -21 105 0 126 3 167 24 111 54 142 131
136 345 -3 128 -5 146 -28 191 -55 107 -208 158 -377 125z m176 -154 c43 -23
51 -54 51 -197 l0 -131 -29 -29 c-26 -26 -36 -29 -91 -29 -63 0 -96 11 -117
39 -8 11 -12 62 -13 156 0 150 7 176 54 195 33 14 114 11 145 -4z"/>
<path d="M6959 5890 c-25 -10 -61 -28 -80 -39 -44 -27 -47 -27 -57 12 -8 32
-8 32 -80 35 l-72 3 0 -341 0 -341 88 3 87 3 5 219 5 219 88 46 87 45 -6 66
c-9 90 -10 91 -65 70z"/>
<path d="M7411 5894 c-30 -8 -69 -23 -87 -34 l-32 -20 -11 30 c-10 31 -10 31
-78 28 l-68 -3 -3 -482 c-2 -383 0 -483 10 -483 7 0 48 5 91 12 l77 11 0 137
0 137 43 -8 c63 -12 194 -11 240 3 22 7 55 27 73 45 51 51 64 111 64 293 0
112 -4 171 -15 208 -36 120 -151 167 -304 126z m119 -154 c18 -18 20 -33 20
-180 0 -197 -2 -200 -109 -200 -38 0 -83 3 -100 6 l-31 7 0 167 0 168 52 26
c66 33 139 35 168 6z"/>
<path d="M4935 5887 c-3 -7 -4 -158 -3 -337 l3 -325 88 -3 87 -3 0 341 0 340
-85 0 c-60 0 -87 -4 -90 -13z"/>
<path d="M10645 4695 c-140 -26 -235 -75 -317 -164 -103 -110 -138 -250 -138
-542 l0 -179 -160 0 -160 0 0 -205 0 -205 160 0 160 0 0 -805 0 -805 255 0
255 0 0 805 0 805 239 0 240 0 5 43 c5 42 26 321 26 351 0 14 -28 16 -256 16
l-256 0 4 183 c4 211 11 236 88 275 37 18 60 22 145 22 55 0 140 -7 190 -15
49 -8 90 -13 91 -12 2 4 48 351 48 371 1 15 -10 22 -49 33 -152 40 -432 54
-570 28z"/>
<path d="M2077 4543 c-4 -3 -7 -109 -7 -235 l0 -228 385 0 385 0 0 -1145 0
-1145 260 0 260 0 0 1145 0 1145 385 0 385 0 0 235 0 235 -1023 0 c-563 0
-1027 -3 -1030 -7z"/>
<path d="M4450 3839 c-370 -43 -585 -228 -654 -561 -13 -63 -16 -151 -16 -486
0 -241 4 -433 11 -468 59 -337 264 -517 645 -565 132 -16 405 -7 559 20 133
23 335 77 359 94 13 11 11 33 -23 195 -21 100 -40 184 -42 186 -2 3 -36 -4
-74 -15 -173 -48 -291 -63 -505 -64 -237 0 -285 10 -350 75 -49 49 -68 110
-76 242 l-7 108 561 0 562 0 0 288 c0 312 -11 418 -54 536 -71 197 -217 328
-426 385 -139 38 -308 48 -470 30z m337 -445 c96 -48 133 -133 133 -305 l0
-79 -322 0 -321 0 6 98 c3 53 13 117 22 141 45 128 151 184 332 177 77 -3 102
-8 150 -32z"/>
<path d="M6641 3829 c-81 -28 -263 -118 -370 -182 -52 -32 -96 -55 -98 -53 -2
2 -11 48 -19 101 -8 54 -17 101 -20 106 -3 5 -99 9 -215 9 l-209 0 0 -1010 0
-1010 255 0 255 0 2 652 3 652 120 73 c66 40 183 105 260 144 77 39 141 72
142 73 3 3 -46 459 -50 461 -1 2 -27 -6 -56 -16z"/>
<path d="M7840 3815 c-106 -41 -202 -88 -332 -166 -55 -33 -102 -58 -104 -56
-2 2 -10 47 -18 100 -8 53 -17 101 -21 107 -4 6 -82 10 -216 10 l-209 0 0
-1010 0 -1010 255 0 255 0 2 652 3 652 130 78 c72 43 190 108 263 145 72 36
132 69 132 72 0 20 -49 454 -52 456 -2 2 -41 -11 -88 -30z"/>
<path d="M8705 3844 c-186 -15 -398 -48 -501 -79 l-50 -15 31 -191 30 -191 40
6 c22 3 86 12 143 21 242 37 519 37 622 0 57 -20 87 -49 113 -105 18 -38 22
-71 25 -206 l4 -162 -323 -4 c-291 -5 -332 -7 -402 -26 -244 -66 -347 -226
-347 -537 0 -303 111 -501 325 -576 179 -63 505 -17 722 102 80 44 83 44 83
26 0 -7 7 -37 15 -65 l16 -52 209 0 210 0 0 678 c0 380 -4 724 -10 784 -31
323 -160 485 -441 557 -127 32 -350 47 -514 35z m455 -1443 l0 -149 -72 -30
c-111 -46 -193 -64 -298 -66 -78 -1 -101 3 -129 19 -54 32 -72 65 -78 138 -11
133 19 205 95 225 20 5 137 10 260 11 l222 1 0 -149z"/>
<path d="M12060 3844 c-390 -37 -622 -210 -712 -530 -22 -76 -23 -95 -23 -519
l0 -440 28 -90 c64 -204 164 -328 329 -410 140 -69 259 -96 453 -102 535 -18
835 171 919 579 13 63 16 149 16 465 0 345 -2 398 -20 482 -50 242 -199 418
-424 500 -46 16 -121 37 -167 46 -84 16 -315 27 -399 19z m342 -467 c32 -16
73 -47 93 -70 62 -73 68 -105 73 -448 5 -354 -4 -455 -45 -530 -55 -101 -150
-143 -328 -143 -149 -1 -211 20 -282 90 -83 83 -84 92 -81 541 3 374 3 379 27
431 30 67 88 117 166 142 50 17 83 20 190 17 119 -2 135 -5 187 -30z"/>
<path d="M14230 3815 c-106 -41 -202 -88 -332 -166 -55 -33 -102 -58 -104 -56
-3 3 -34 197 -34 212 0 3 -97 5 -215 5 l-215 0 0 -1010 0 -1010 255 0 255 0 2
651 3 652 130 79 c72 43 190 109 263 145 72 36 132 71 132 77 -1 27 -49 448
-52 451 -2 2 -41 -11 -88 -30z"/>
<path d="M15640 3835 c-175 -24 -389 -85 -557 -159 -43 -19 -80 -33 -84 -31
-3 3 -16 41 -29 85 l-23 80 -191 -2 -191 -3 -3 -1007 -2 -1008 255 0 255 0 0
700 0 699 78 36 c237 110 462 156 541 109 63 -37 61 -11 61 -814 l0 -730 255
0 255 0 0 700 0 700 52 26 c219 111 497 168 567 117 14 -11 34 -35 43 -54 17
-31 18 -89 18 -761 l0 -728 255 0 256 0 -3 818 c-4 810 -4 818 -26 897 -30
107 -57 161 -111 218 -86 93 -214 134 -381 122 -197 -13 -472 -85 -664 -174
l-84 -39 -11 24 c-19 42 -94 115 -144 141 -101 51 -213 62 -387 38z"/>
</g>
</svg>
