<?xml version="1.0" standalone="no"?>
<!DOCTYPE svg PUBLIC "-//W3C//DTD SVG 20010904//EN"
 "http://www.w3.org/TR/2001/REC-SVG-20010904/DTD/svg10.dtd">
<svg version="1.0" xmlns="http://www.w3.org/2000/svg"
 width="1149.000000pt" height="648.000000pt" viewBox="0 0 1149.000000 648.000000"
 preserveAspectRatio="xMidYMid meet">

<g transform="translate(0.000000,648.000000) scale(0.100000,-0.100000)"
fill="#000000" stroke="none">
<path d="M5485 5331 c-523 -82 -971 -330 -1323 -731 -96 -110 -232 -316 -302
-458 l-54 -112 -1698 -2 -1698 -3 186 -232 186 -233 1445 0 1444 0 -6 -47 c-4
-27 -9 -56 -11 -65 -5 -17 -65 -18 -1025 -20 l-1021 -3 186 -232 187 -233 835
0 c659 0 835 -3 839 -12 2 -7 6 -37 10 -65 l6 -53 -431 -2 -430 -3 186 -232
186 -233 312 0 311 0 59 -117 c119 -239 244 -410 437 -598 179 -174 338 -286
554 -390 301 -145 603 -215 935 -215 363 0 646 64 957 216 433 212 784 565
996 1002 l50 102 313 0 312 0 186 233 186 232 -431 3 -430 2 7 58 c3 31 8 60
11 65 2 4 379 7 838 7 l834 0 186 233 187 232 -1023 5 -1024 5 -7 40 c-4 22
-7 50 -7 63 l-1 22 1444 0 1444 0 186 233 186 232 -1699 5 -1700 5 -63 125
c-312 617 -871 1033 -1558 1162 -159 29 -523 34 -685 9z m441 -461 c225 -19
416 -70 609 -165 411 -202 722 -562 863 -1000 63 -192 77 -289 77 -515 -1
-164 -4 -213 -24 -310 -92 -454 -347 -837 -721 -1085 -509 -337 -1145 -375
-1689 -100 -461 232 -789 669 -893 1186 -19 97 -22 145 -22 319 0 174 3 221
22 314 63 302 210 592 410 811 284 311 670 504 1085 544 120 12 142 12 283 1z"/>
<path d="M5820 3683 c-142 -24 -294 -127 -364 -246 -221 -377 92 -844 522
-779 75 12 188 59 239 99 l22 18 -49 79 c-27 43 -51 80 -54 83 -2 2 -23 -9
-46 -26 -127 -92 -304 -78 -415 34 -67 66 -90 125 -90 225 0 70 4 94 24 135
90 182 319 241 481 124 23 -17 44 -28 46 -26 3 3 27 40 54 83 l49 79 -22 17
c-101 79 -270 122 -397 101z"/>
</g>
</svg>
