<?xml version="1.0" standalone="no"?>
<!DOCTYPE svg PUBLIC "-//W3C//DTD SVG 20010904//EN"
 "http://www.w3.org/TR/2001/REC-SVG-20010904/DTD/svg10.dtd">
<svg version="1.0" xmlns="http://www.w3.org/2000/svg"
 width="3334.000000pt" height="3334.000000pt" viewBox="0 0 3334.000000 3334.000000"
 preserveAspectRatio="xMidYMid meet">

<g transform="translate(0.000000,3334.000000) scale(0.100000,-0.100000)"
fill="#000000" stroke="none">
<path d="M4315 7044 c-540 -83 -1012 -384 -1316 -838 -384 -571 -433 -1302
-130 -1921 457 -934 1566 -1339 2514 -919 213 94 405 227 580 401 140 139 162
182 162 308 0 106 -22 163 -89 228 -64 63 -136 92 -226 90 -110 -1 -150 -23
-283 -151 -207 -199 -375 -294 -631 -358 -137 -34 -350 -43 -488 -20 -472 77
-862 400 -1017 839 -97 275 -100 553 -10 832 60 188 156 341 309 496 252 254
554 381 910 382 168 1 268 -16 422 -69 195 -68 346 -163 503 -319 133 -131
169 -150 290 -150 81 0 95 3 143 29 60 34 111 85 144 148 19 36 23 58 23 138
0 85 -3 101 -29 150 -52 98 -282 312 -456 421 -233 148 -489 243 -762 283
-132 20 -436 20 -563 0z"/>
<path d="M20503 7051 c-59 -15 -138 -67 -175 -116 -74 -97 -69 41 -66 -1825
l3 -1675 24 -50 c32 -63 93 -124 156 -156 41 -20 65 -24 135 -24 73 0 93 4
141 28 66 32 132 99 162 165 l22 47 0 1685 0 1685 -28 56 c-32 66 -100 132
-163 160 -49 22 -162 33 -211 20z"/>
<path d="M6833 6212 c-93 -33 -158 -98 -194 -192 -18 -49 -19 -90 -19 -1305 0
-1237 0 -1255 20 -1309 27 -72 88 -139 158 -173 49 -24 69 -28 142 -28 70 0
94 4 135 24 63 32 131 99 158 159 22 47 22 54 27 822 6 770 6 775 29 850 84
278 279 437 563 460 126 10 176 29 243 91 73 68 99 127 99 229 1 66 -4 95 -20
131 -31 67 -87 124 -156 159 -57 28 -69 30 -168 30 -182 0 -370 -44 -529 -124
l-69 -35 -23 46 c-30 62 -98 129 -157 155 -66 30 -172 34 -239 10z"/>
<path d="M12646 6219 c-401 -59 -712 -328 -803 -696 -23 -95 -22 -294 2 -388
37 -145 109 -268 216 -371 147 -139 294 -208 607 -285 219 -53 396 -111 455
-149 82 -52 110 -160 70 -276 -63 -185 -373 -271 -598 -166 -82 39 -119 72
-165 152 -46 78 -83 113 -158 148 -71 32 -192 29 -266 -7 -129 -63 -201 -204
-176 -341 27 -151 183 -351 360 -466 289 -186 705 -226 1042 -100 302 113 525
362 598 668 24 101 27 290 6 400 -60 312 -268 526 -638 656 -47 17 -166 52
-263 77 -320 83 -424 127 -451 191 -30 72 -9 149 61 220 70 72 139 97 265 98
161 1 263 -46 323 -149 40 -69 93 -122 152 -153 42 -22 63 -26 135 -27 73 0
93 4 141 28 116 57 183 161 183 287 0 64 -4 85 -32 144 -128 273 -396 457
-737 506 -83 11 -246 11 -329 -1z"/>
<path d="M15166 6219 c-305 -44 -558 -209 -705 -456 -187 -315 -151 -711 87
-964 151 -160 306 -238 640 -320 222 -54 398 -112 455 -149 65 -44 90 -100 85
-188 -9 -162 -121 -264 -322 -294 -130 -20 -295 21 -384 96 -18 16 -50 59 -72
96 -46 78 -83 113 -158 148 -71 32 -192 29 -266 -7 -98 -48 -167 -146 -180
-256 -26 -201 220 -504 511 -630 336 -145 760 -121 1065 61 88 53 234 188 286
266 51 75 110 200 134 284 20 68 23 102 23 249 0 147 -3 181 -23 248 -43 148
-132 293 -233 378 -169 143 -310 203 -741 318 -205 55 -327 105 -353 145 -42
64 -27 163 38 233 96 105 265 139 434 88 69 -21 130 -69 166 -130 40 -69 93
-122 152 -153 42 -22 63 -26 135 -27 73 0 93 4 141 28 116 57 183 161 183 287
0 64 -4 85 -32 144 -128 273 -396 457 -737 506 -83 11 -246 11 -329 -1z"/>
<path d="M17084 6216 c-62 -20 -128 -70 -163 -123 -66 -99 -62 45 -59 -2088
l3 -1940 35 -64 c64 -118 171 -178 304 -169 120 8 216 71 274 181 l27 52 3
683 c1 375 5 682 8 682 3 0 40 -20 82 -44 406 -233 918 -248 1337 -38 440 219
731 642 795 1155 18 140 8 413 -19 550 -93 461 -376 838 -776 1032 -126 62
-199 87 -340 117 -145 32 -435 32 -582 0 -168 -36 -330 -101 -470 -187 l-42
-25 -20 44 c-26 61 -95 133 -156 164 -60 31 -176 40 -241 18z m1327 -636 c96
-14 214 -54 289 -97 80 -47 223 -188 269 -265 133 -227 167 -530 90 -793 -81
-273 -285 -479 -549 -551 -91 -26 -319 -26 -410 -1 -158 44 -312 145 -405 268
-64 84 -129 224 -157 335 -32 125 -32 371 0 486 50 184 105 280 227 403 120
121 230 179 400 210 86 16 159 18 246 5z"/>
<path d="M22675 6219 c-322 -41 -605 -185 -832 -423 -436 -456 -545 -1182
-267 -1776 96 -203 265 -412 442 -545 439 -329 1074 -366 1556 -89 l91 53 25
-52 c31 -65 90 -125 155 -157 41 -20 65 -25 135 -25 73 0 93 4 142 28 33 16
76 49 102 78 82 91 76 -13 76 1404 0 1419 6 1313 -77 1405 -25 28 -69 63 -97
78 -44 23 -63 27 -141 27 -75 0 -98 -4 -140 -24 -64 -32 -124 -93 -155 -157
l-25 -52 -92 53 c-267 151 -588 213 -898 174z m301 -640 c93 -13 212 -54 291
-100 74 -43 218 -187 261 -261 44 -74 84 -175 108 -268 29 -116 27 -375 -4
-489 -78 -286 -268 -498 -517 -577 -313 -99 -637 -12 -843 229 -92 106 -165
271 -193 431 -19 114 -7 342 25 449 95 320 314 525 621 582 89 17 154 18 251
4z"/>
<path d="M25074 6216 c-58 -19 -127 -68 -163 -118 -64 -87 -61 -19 -61 -1389
0 -1231 0 -1249 20 -1303 27 -72 88 -139 158 -173 49 -24 69 -28 142 -28 65 0
96 5 131 21 66 31 124 87 156 152 l28 57 6 805 c6 884 3 841 68 985 55 119
167 237 281 295 138 71 341 86 479 37 222 -79 359 -276 391 -562 6 -52 10
-398 10 -816 0 -818 -3 -780 76 -868 26 -29 69 -62 102 -78 49 -24 69 -28 142
-28 74 0 92 4 143 29 64 33 114 82 149 148 l23 43 3 805 c2 694 0 820 -13 914
-69 471 -368 852 -795 1013 -304 115 -714 88 -1009 -67 l-76 -40 -15 22 c-65
98 -152 149 -263 154 -43 2 -89 -2 -113 -10z"/>
<path d="M29090 6210 c-319 -45 -582 -173 -799 -391 -363 -364 -516 -924 -401
-1476 120 -576 585 -1041 1146 -1146 186 -35 440 -30 641 14 361 78 632 275
796 577 41 74 42 80 42 167 0 79 -4 97 -28 142 -60 116 -160 177 -287 177
-130 0 -209 -48 -295 -179 -87 -132 -182 -201 -340 -247 -70 -20 -102 -23
-255 -23 -166 0 -179 1 -255 28 -210 74 -380 232 -475 441 -17 36 -30 70 -30
76 0 6 323 10 938 12 l937 3 46 23 c68 34 121 83 154 143 26 48 30 66 33 156
12 308 -89 665 -260 918 -203 299 -509 502 -860 570 -98 19 -356 28 -448 15z
m274 -640 c264 -39 474 -203 576 -451 17 -39 30 -76 30 -80 0 -5 -321 -9 -715
-9 -393 0 -715 2 -715 4 0 2 13 35 29 74 131 316 463 510 795 462z"/>
<path d="M9547 6190 c-515 -94 -946 -450 -1142 -945 -77 -195 -115 -460 -95
-671 35 -376 176 -680 440 -944 128 -129 240 -210 398 -289 480 -240 1061
-203 1508 98 353 237 585 592 656 1006 28 167 22 430 -15 585 -70 294 -197
521 -412 735 -214 215 -441 342 -735 412 -149 35 -444 42 -603 13z m409 -631
c271 -48 503 -217 628 -458 80 -156 115 -335 96 -494 -24 -196 -105 -369 -238
-509 -171 -179 -381 -268 -630 -268 -411 0 -758 284 -847 694 -26 118 -17 312
20 426 101 315 343 535 660 603 83 18 228 21 311 6z"/>
</g>
</svg>
