<?xml version="1.0" standalone="no"?>
<!DOCTYPE svg PUBLIC "-//W3C//DTD SVG 20010904//EN"
 "http://www.w3.org/TR/2001/REC-SVG-20010904/DTD/svg10.dtd">
<svg version="1.0" xmlns="http://www.w3.org/2000/svg"
 width="2084.000000pt" height="2084.000000pt" viewBox="0 0 2084.000000 2084.000000"
 preserveAspectRatio="xMidYMid meet">

<g transform="translate(0.000000,2084.000000) scale(0.100000,-0.100000)"
fill="#000000" stroke="none">
<path d="M10574 20662 c-177 -63 -336 -282 -452 -622 -107 -313 -161 -637
-182 -1094 -21 -439 18 -868 116 -1284 13 -57 24 -107 24 -111 0 -5 -51 -11
-112 -15 -62 -3 -194 -15 -293 -26 -997 -112 -1924 -411 -2810 -908 -121 -69
-163 -87 -172 -79 -6 7 -39 75 -73 152 -224 510 -586 1026 -1011 1440 -307
300 -599 481 -853 531 -74 15 -97 16 -154 5 -203 -37 -295 -203 -278 -503 13
-250 110 -562 290 -933 219 -454 501 -847 895 -1248 l175 -178 -260 -262
c-143 -144 -309 -313 -367 -376 -258 -272 -531 -622 -612 -781 l-25 -50 712 0
c702 0 714 0 747 21 18 11 106 94 194 185 682 702 1522 1231 2442 1539 1716
575 3569 374 5129 -555 435 -259 820 -562 1208 -951 119 -120 226 -222 237
-228 21 -12 1416 -16 1445 -5 18 7 -48 108 -212 324 -214 281 -362 450 -656
748 -190 192 -218 224 -206 236 8 7 69 59 135 114 490 408 963 1052 1225 1667
60 140 145 401 171 525 26 126 32 361 10 450 -27 108 -85 190 -166 233 -61 32
-206 36 -315 8 -248 -63 -522 -251 -865 -595 -441 -443 -777 -957 -1009 -1543
-38 -95 -70 -173 -71 -173 -2 0 -92 52 -202 116 -416 244 -614 347 -933 489
-584 260 -1102 412 -1854 545 -186 32 -340 61 -342 62 -1 2 6 35 17 73 33 116
77 351 98 515 84 654 31 1372 -139 1895 -50 151 -159 373 -231 468 -119 157
-281 227 -415 179z"/>
<path d="M6795 12590 c-121 -4 -221 -7 -222 -8 -2 -1 -3 -987 -3 -2192 l0
-2190 1360 0 1360 0 0 465 0 465 -779 2 c-429 2 -783 6 -787 10 -10 10 -10
587 0 711 l8 97 689 0 689 0 0 485 0 485 -692 2 -693 3 0 360 0 360 783 3 782
2 0 469 0 468 -67 6 c-84 8 -2125 5 -2428 -3z"/>
<path d="M14605 12113 c-8 -521 1 -3394 12 -3719 l6 -194 574 0 573 0 0 1116
c0 954 2 1115 14 1112 8 -2 267 -230 575 -508 308 -278 565 -506 571 -508 5
-2 264 229 575 513 311 284 570 513 575 510 6 -4 10 -405 10 -1120 l0 -1113
188 -7 c204 -9 916 0 945 10 16 7 17 123 17 2201 l0 2194 -237 0 c-216 0 -240
-2 -277 -20 -23 -11 -165 -133 -316 -271 -612 -560 -1441 -1313 -1460 -1326
-19 -14 -24 -13 -43 4 -134 120 -1254 1136 -1451 1316 -183 168 -275 245 -315
264 -56 28 -57 28 -292 31 l-237 3 -7 -488z"/>
<path d="M1510 10396 l0 -2194 198 -7 c204 -8 849 0 915 11 l37 7 0 828 0 829
705 0 705 0 0 -835 0 -835 568 0 569 0 6 137 c9 178 9 3526 0 3936 l-6 317
-569 0 -568 0 0 -774 0 -775 -47 -7 c-62 -10 -1116 -10 -1255 0 l-108 8 0 774
0 774 -575 0 -575 0 0 -2194z"/>
<path d="M10597 12543 c-11 -81 -20 -3172 -12 -3775 l7 -568 1364 0 1364 0 0
575 0 575 -792 2 -793 3 -3 1618 -2 1617 -564 0 -563 0 -6 -47z"/>
<path d="M4536 6361 l-29 -6 105 -140 c286 -382 642 -771 1008 -1097 l75 -67
-186 -188 c-373 -379 -644 -749 -863 -1183 -178 -350 -278 -637 -311 -887 -26
-202 -14 -338 41 -450 77 -158 262 -209 483 -134 260 88 493 252 816 576 412
411 727 876 980 1448 22 48 42 87 45 87 4 0 62 -32 131 -71 940 -541 2005
-869 3080 -951 178 -13 175 -11 153 -93 -204 -770 -163 -1872 92 -2508 104
-258 239 -443 375 -513 46 -24 66 -28 134 -28 72 0 86 3 143 33 61 34 138 101
186 164 13 17 61 106 106 195 208 415 294 875 294 1562 0 420 -29 680 -118
1055 -23 98 -30 142 -22 146 6 4 40 9 76 13 225 23 657 103 930 171 774 194
1469 496 2193 953 65 41 120 73 122 71 2 -2 21 -52 43 -111 229 -608 575
-1149 1027 -1603 261 -263 465 -420 690 -531 135 -67 242 -96 355 -97 73 -1
92 2 136 25 136 71 189 196 187 443 -1 167 -22 285 -88 483 -245 735 -729
1442 -1350 1971 -60 51 -114 97 -119 102 -6 5 89 109 225 246 253 257 404 428
575 648 149 192 190 253 177 266 -6 6 -252 9 -724 7 l-714 -3 -50 -27 c-27
-14 -102 -75 -165 -135 -532 -503 -1030 -856 -1625 -1148 -652 -320 -1302
-503 -2065 -580 -213 -22 -757 -30 -995 -16 -765 47 -1404 200 -2080 498 -698
309 -1286 706 -1842 1246 -78 75 -158 144 -177 152 -30 13 -138 15 -733 14
-384 -1 -711 -4 -727 -8z"/>
</g>
</svg>
