<?xml version="1.0" standalone="no"?>
<!DOCTYPE svg PUBLIC "-//W3C//DTD SVG 20010904//EN"
 "http://www.w3.org/TR/2001/REC-SVG-20010904/DTD/svg10.dtd">
<svg version="1.0" xmlns="http://www.w3.org/2000/svg"
 width="742.000000pt" height="1024.000000pt" viewBox="0 0 742.000000 1024.000000"
 preserveAspectRatio="xMidYMid meet">

<g transform="translate(0.000000,1024.000000) scale(0.100000,-0.100000)"
fill="#000000" stroke="none">
<path d="M3795 10224 c-16 -2 -70 -9 -120 -15 -256 -31 -582 -131 -860 -264
-155 -73 -487 -261 -636 -360 -231 -153 -370 -323 -435 -528 -16 -52 -23 -60
-68 -86 -178 -101 -285 -325 -315 -658 l-8 -93 -178 -172 c-324 -314 -565
-638 -759 -1018 -265 -519 -416 -1149 -416 -1740 0 -744 219 -1481 626 -2101
174 -265 321 -441 579 -689 l99 -95 8 -125 c4 -69 11 -211 16 -315 10 -216 19
-248 85 -296 21 -15 82 -45 135 -65 54 -20 185 -80 292 -132 460 -223 605
-270 869 -281 l143 -6 84 -285 c112 -381 230 -733 255 -766 12 -15 134 -50
259 -74 264 -51 632 -70 980 -51 253 14 467 36 531 55 99 30 178 82 216 145
21 34 22 43 16 168 l-6 132 29 6 c233 52 309 93 348 187 24 56 20 179 -9 315
-14 65 -34 159 -45 208 -38 173 -38 329 -2 342 9 3 40 16 68 28 55 24 84 67
84 124 0 28 5 34 48 52 74 32 206 58 337 65 l120 7 40 -59 c46 -66 46 -66 217
-88 275 -36 546 1 654 89 109 90 196 295 224 529 6 54 9 126 5 160 -16 151
-158 583 -240 728 -27 49 -129 148 -151 148 -26 0 -23 21 13 81 172 295 341
766 412 1154 49 265 55 345 56 700 0 346 -3 387 -46 650 -121 739 -472 1438
-1002 2000 l-123 130 -13 140 c-40 436 -151 813 -307 1042 -155 227 -466 539
-675 679 -206 138 -457 228 -779 280 -99 15 -573 29 -655 18z m406 -224 c219
-22 458 -81 677 -169 340 -136 461 -236 780 -648 l71 -91 -93 5 c-151 9 -248
-34 -295 -130 -19 -39 -29 -127 -15 -127 3 0 17 9 31 20 35 27 116 50 179 50
113 0 286 -85 369 -183 84 -97 134 -251 154 -472 21 -224 32 -621 21 -788 -32
-508 -140 -929 -337 -1310 -57 -110 -237 -384 -321 -488 -66 -81 -114 -121
-242 -199 -258 -157 -523 -245 -770 -257 -200 -9 -332 23 -565 138 -273 134
-478 327 -761 714 -89 122 -110 145 -112 126 -6 -37 26 -138 69 -221 49 -95
140 -214 271 -357 163 -178 290 -287 413 -355 47 -26 48 -27 15 -20 -59 12
-252 8 -294 -7 -21 -7 -55 -31 -76 -52 l-37 -39 -150 15 c-497 47 -649 146
-835 542 -110 236 -208 546 -208 659 0 45 12 68 71 131 63 67 84 110 75 157
-4 19 -10 38 -15 40 -18 12 -91 -19 -155 -66 -88 -64 -112 -72 -195 -66 -89 7
-161 40 -239 112 -113 105 -196 261 -237 442 -53 239 48 465 252 566 64 31 74
33 173 33 98 0 108 -2 154 -29 82 -49 137 -141 179 -301 l24 -90 42 -3 c57 -4
175 15 214 34 18 9 42 26 55 37 29 26 25 55 -35 317 -44 190 -45 198 -40 320
5 95 17 179 53 350 45 214 48 233 48 390 1 147 -2 174 -23 242 l-24 77 33 58
c73 130 195 267 364 407 161 134 550 366 713 425 169 62 360 82 574 61z
m-1149 -197 c24 -27 6 -57 -42 -77 -23 -9 -58 -29 -78 -45 -21 -15 -53 -34
-72 -41 -61 -23 -211 -100 -290 -150 -136 -84 -253 -183 -351 -297 -70 -82
-71 -82 -162 -112 -115 -37 -147 -44 -147 -32 0 4 23 44 51 87 94 145 268 302
469 426 157 97 518 256 586 257 11 1 28 -7 36 -16z m-644 -876 c8 -27 12 -50
10 -53 -2 -2 -38 -10 -79 -19 -316 -65 -526 -210 -635 -440 -59 -124 -69 -179
-69 -382 0 -177 -1 -182 -22 -192 -21 -10 -21 -8 -29 97 -21 283 -1 489 63
621 54 114 188 238 338 313 112 57 294 109 370 105 38 -2 40 -4 53 -50z m500
-3856 c29 -6 106 -16 170 -21 64 -6 139 -13 165 -17 56 -7 54 2 26 -137 l-14
-68 -45 5 c-118 15 -347 114 -412 179 -62 62 -47 123 21 89 20 -10 60 -24 89
-30z m2011 17 c-24 -17 -85 -65 -136 -105 l-92 -73 -67 0 c-136 0 -276 41
-361 106 -44 33 -34 45 24 28 68 -21 221 -17 333 7 213 46 316 68 329 68 8 1
-6 -13 -30 -31z m-35 -744 c83 -56 142 -83 179 -84 27 0 27 -1 27 -62 0 -131
-30 -601 -45 -699 -19 -125 -56 -289 -65 -289 -9 0 -88 169 -182 385 -135 312
-219 469 -344 642 -15 20 -14 24 19 60 32 35 40 38 89 38 36 0 70 9 108 27 86
41 131 38 214 -18z m556 -86 c51 -15 135 -74 170 -118 16 -21 30 -40 30 -43 0
-4 -68 -122 -151 -264 -142 -242 -346 -561 -402 -628 l-25 -30 24 95 c47 180
92 532 110 848 7 138 7 138 93 151 51 8 97 5 151 -11z m-1037 -226 c109 -164
210 -369 363 -736 30 -71 53 -131 51 -133 -6 -6 -199 63 -362 130 -150 61
-608 286 -634 311 -37 38 76 229 198 333 118 100 292 215 307 202 7 -6 42 -54
77 -107z m2380 -844 c56 -28 119 -90 149 -145 35 -64 88 -239 139 -458 35
-150 43 -197 42 -280 0 -153 -46 -268 -142 -358 -84 -79 -140 -98 -331 -117
-100 -9 -265 1 -297 19 -16 9 -13 12 22 27 22 9 117 32 210 51 94 19 174 38
178 42 4 5 -14 14 -40 22 -37 11 -101 13 -273 10 -124 -2 -270 -4 -325 -5
l-100 -1 -22 225 c-26 263 -56 470 -83 577 l-20 76 32 28 c50 43 176 101 358
163 91 32 201 76 245 98 44 22 91 44 105 49 35 11 107 1 153 -23z m-2423 -328
c226 -11 468 -41 481 -61 13 -21 35 -306 49 -624 5 -121 18 -326 29 -455 11
-129 22 -314 26 -410 18 -527 38 -806 65 -924 5 -22 10 -46 10 -52 0 -24 -274
-82 -490 -104 -143 -15 -462 -12 -628 5 -178 19 -271 35 -463 81 l-145 35 -22
72 c-214 699 -329 1248 -427 2021 -19 154 -34 281 -32 282 3 3 209 39 344 59
232 34 628 72 828 78 44 2 96 4 115 5 19 1 136 -3 260 -8z m1346 2 c29 -19 92
-188 118 -315 26 -126 46 -323 46 -458 l0 -126 -77 -26 c-88 -30 -163 -44
-163 -31 0 33 -36 301 -65 487 -18 122 -39 260 -45 307 -6 47 -13 102 -16 122
-5 32 -3 37 18 41 40 7 172 7 184 -1z m-428 -1339 c5 -10 15 -54 21 -98 7 -44
21 -116 31 -160 35 -150 60 -322 60 -407 l0 -85 -91 -28 c-92 -28 -219 -45
-219 -29 0 5 -7 117 -15 249 -8 132 -15 306 -15 388 0 146 0 147 23 147 12 1
56 9 97 20 95 24 97 24 108 3z"/>
<path d="M3645 9013 c-181 -44 -390 -241 -445 -421 -26 -83 -26 -132 1 -166
29 -36 42 -33 67 19 40 82 110 180 170 237 112 107 255 153 404 130 40 -6 74
-9 76 -8 8 8 14 77 8 99 -9 36 -63 84 -114 102 -43 14 -124 18 -167 8z"/>
<path d="M5730 8330 c0 -76 25 -184 70 -300 23 -57 39 -109 36 -116 -7 -18
-66 -32 -171 -39 -49 -3 -112 -11 -139 -17 l-48 -11 6 -40 c14 -87 71 -127
178 -127 73 0 131 16 214 58 63 32 139 105 131 126 -3 7 -27 50 -53 97 -27 46
-85 160 -128 252 -44 92 -83 167 -88 167 -4 0 -8 -23 -8 -50z"/>
<path d="M4099 8335 c-6 -129 39 -270 141 -445 23 -39 38 -75 35 -80 -11 -19
-61 -39 -111 -45 -31 -4 -95 1 -174 14 -163 27 -158 28 -176 -15 -42 -101 54
-172 252 -189 198 -17 351 57 369 179 10 64 -8 105 -71 167 -78 77 -116 136
-184 289 -68 151 -79 168 -81 125z"/>
<path d="M4923 8223 c-17 -6 -16 -68 1 -163 41 -222 179 -449 494 -810 41 -47
83 -102 93 -122 25 -48 24 -108 -2 -166 l-20 -47 -175 -79 c-214 -96 -328
-134 -431 -141 -102 -8 -159 8 -191 55 -12 19 -25 45 -28 59 -15 69 -35 131
-43 131 -4 0 -17 -19 -27 -42 -27 -61 -26 -178 3 -238 46 -96 44 -95 195 -94
263 2 473 70 753 244 90 56 116 77 121 98 3 15 17 61 30 102 13 41 24 97 24
123 0 48 -1 49 -102 150 -279 277 -562 669 -615 851 -24 84 -43 104 -80 89z"/>
<path d="M1783 7531 c-78 -19 -139 -89 -158 -181 l-7 -35 33 31 c46 42 76 57
105 50 l24 -6 -18 -43 c-13 -32 -17 -72 -17 -172 0 -137 9 -186 47 -245 l23
-35 6 155 c6 144 12 181 40 236 11 22 48 44 74 44 29 0 77 -56 115 -134 22
-45 50 -93 62 -106 l23 -25 9 54 c19 108 -31 247 -116 327 -75 70 -170 103
-245 85z"/>
<path d="M5660 6619 c-192 -101 -280 -136 -393 -160 -49 -10 -92 -21 -96 -24
-7 -8 -7 -222 0 -230 3 -2 36 0 74 6 235 32 398 161 560 442 15 26 23 47 18
47 -4 0 -78 -37 -163 -81z"/>
<path d="M4090 6543 c0 -5 14 -31 31 -56 119 -181 448 -297 838 -297 l124 0
-6 110 c-3 60 -8 114 -12 120 -4 6 -77 10 -193 10 -343 0 -573 35 -764 115
-10 4 -18 3 -18 -2z"/>
<path d="M3993 6323 c-17 -2 -37 -11 -43 -19 -15 -17 -4 -35 67 -115 26 -29
81 -98 121 -151 147 -195 235 -241 492 -255 187 -10 432 28 501 78 30 21 89
94 89 110 0 4 -127 7 -282 7 -223 -1 -306 2 -392 16 -243 39 -404 134 -480
285 -15 28 -30 50 -34 49 -4 0 -21 -3 -39 -5z"/>
<path d="M4785 4150 c-42 -46 -10 -120 52 -120 42 0 73 30 73 70 0 62 -84 95
-125 50z"/>
<path d="M4883 3815 c-72 -31 -46 -135 34 -135 57 0 89 67 54 112 -26 32 -50
39 -88 23z"/>
<path d="M6515 2919 c-153 -22 -293 -87 -380 -178 l-39 -41 35 0 c63 0 132 28
274 111 77 45 163 90 190 100 48 18 49 18 15 17 -19 0 -62 -4 -95 -9z"/>
<path d="M6340 2641 c-51 -11 -103 -35 -119 -54 -12 -16 -3 -17 115 -17 111 0
391 24 401 34 2 1 -32 11 -74 20 -87 20 -269 29 -323 17z"/>
<path d="M6289 2376 c-26 -7 -56 -20 -68 -28 -20 -14 -15 -15 61 -21 99 -8
514 -9 506 -2 -3 3 -50 17 -104 31 -122 31 -322 41 -395 20z"/>
</g>
</svg>
