<?xml version="1.0" standalone="no"?>
<!DOCTYPE svg PUBLIC "-//W3C//DTD SVG 20010904//EN"
 "http://www.w3.org/TR/2001/REC-SVG-20010904/DTD/svg10.dtd">
<svg version="1.0" xmlns="http://www.w3.org/2000/svg"
 width="225.000000pt" height="224.000000pt" viewBox="0 0 225.000000 224.000000"
 preserveAspectRatio="xMidYMid meet">

<g transform="translate(0.000000,224.000000) scale(0.100000,-0.100000)"
fill="#000000" stroke="none">
<path d="M880 2199 c-547 -115 -923 -629 -870 -1190 58 -612 594 -1056 1204
-999 462 44 846 374 966 830 28 107 38 322 20 442 -51 348 -281 664 -600 825
-85 43 -201 81 -298 98 -114 21 -307 18 -422 -6z m230 -125 c-16 -41 -11 -84
16 -159 82 -220 93 -262 101 -355 7 -94 7 -94 15 -45 5 28 15 90 24 138 18
106 54 201 94 248 l30 34 -7 -30 c-23 -89 1 -196 73 -330 60 -113 78 -181 78
-300 0 -108 -19 -175 -69 -249 l-25 -36 23 5 c42 10 320 65 328 65 11 0 -25
-93 -54 -140 -11 -19 -41 -61 -65 -92 l-45 -58 -519 0 -518 0 -50 68 c-51 68
-126 209 -117 219 5 4 247 -46 311 -64 18 -5 18 -3 -3 28 -35 53 -59 112 -72
179 -16 83 -2 167 62 353 45 132 50 155 47 217 -3 79 6 88 47 44 31 -33 62
-116 70 -186 10 -82 14 -88 35 -48 28 55 49 146 59 262 10 119 33 183 82 229
40 37 62 39 49 3z m520 -1489 l0 -95 -525 0 -525 0 0 95 0 95 525 0 525 0 0
-95z m-205 -212 c-16 -85 -83 -165 -173 -205 -37 -17 -68 -22 -142 -22 -83 -1
-102 2 -151 25 -93 44 -152 114 -165 198 l-7 41 323 0 322 0 -7 -37z"/>
</g>
</svg>
