<?xml version="1.0" standalone="no"?>
<!DOCTYPE svg PUBLIC "-//W3C//DTD SVG 20010904//EN"
 "http://www.w3.org/TR/2001/REC-SVG-20010904/DTD/svg10.dtd">
<svg version="1.0" xmlns="http://www.w3.org/2000/svg"
 width="512.000000pt" height="512.000000pt" viewBox="0 0 512.000000 512.000000"
 preserveAspectRatio="xMidYMid meet">

<g transform="translate(0.000000,512.000000) scale(0.100000,-0.100000)"
fill="#000000" stroke="none">
<path d="M2375 5109 c-136 -14 -214 -30 -237 -49 -18 -14 -30 -58 -73 -271
l-51 -254 -130 -65 c-71 -36 -163 -88 -204 -117 l-75 -52 -248 84 c-137 47
-259 85 -272 85 -54 0 -245 -251 -347 -455 -50 -99 -99 -238 -94 -261 4 -14
86 -90 211 -195 l204 -171 -7 -47 c-9 -60 -9 -302 0 -363 l7 -46 -204 -172
c-127 -106 -207 -181 -211 -196 -8 -32 69 -220 146 -353 106 -185 248 -361
291 -361 14 0 138 38 276 84 l252 84 62 -46 c35 -26 126 -79 203 -117 l140
-71 51 -252 c39 -192 55 -257 70 -272 71 -71 779 -71 850 0 15 15 31 80 70
272 l51 252 130 66 c71 36 162 88 203 116 l73 52 257 -86 c176 -58 264 -83
281 -79 49 12 230 255 317 423 62 121 116 262 109 289 -4 14 -87 91 -211 195
l-205 172 8 41 c9 54 9 319 -1 374 l-7 41 205 171 c126 106 207 180 210 194 6
24 -43 163 -93 262 -65 130 -207 338 -286 418 -22 22 -46 37 -61 37 -13 0
-135 -38 -272 -85 l-248 -85 -75 53 c-41 28 -133 81 -204 117 l-130 65 -51
254 c-59 290 -54 283 -162 300 -183 30 -357 37 -518 20z m420 -824 c665 -143
1071 -797 889 -1432 -154 -541 -693 -899 -1253 -834 -403 47 -746 287 -921
645 -315 642 33 1401 735 1601 50 14 122 29 160 34 92 13 302 5 390 -14z"/>
<path d="M1820 3490 l0 -170 285 0 285 0 0 -410 0 -410 170 0 170 0 0 410 0
410 285 0 285 0 0 170 0 170 -740 0 -740 0 0 -170z"/>
<path d="M1820 520 l0 -360 70 0 70 0 0 360 0 360 -70 0 -70 0 0 -360z"/>
<path d="M640 795 l0 -65 100 0 100 0 0 -285 0 -285 80 0 80 0 0 285 0 284
103 3 102 3 3 63 3 62 -286 0 -285 0 0 -65z"/>
<path d="M4231 778 c-5 -13 -12 -39 -16 -58 -11 -52 -23 -70 -48 -70 -36 0
-49 -14 -45 -51 3 -30 7 -34 36 -37 l32 -3 0 -147 c0 -162 9 -197 63 -236 38
-28 136 -28 189 0 l37 19 -27 39 c-24 35 -32 40 -67 40 l-40 1 -3 143 -3 142
61 0 60 0 0 50 0 50 -60 0 -60 0 0 70 0 70 -50 0 c-43 0 -52 -3 -59 -22z"/>
<path d="M2863 656 c-23 -8 -54 -23 -69 -35 l-27 -21 -18 30 c-17 28 -23 30
-74 30 l-55 0 0 -330 0 -330 75 0 75 0 0 95 0 96 28 -15 c101 -52 218 -10 274
98 26 51 36 185 18 242 -37 118 -124 172 -227 140z m69 -147 c22 -42 24 -136
4 -184 -20 -46 -57 -69 -102 -62 -60 10 -64 18 -64 137 0 117 7 133 66 149 45
12 77 -1 96 -40z"/>
<path d="M4002 663 c-12 -2 -41 -22 -64 -44 -23 -21 -43 -39 -45 -39 -1 0 -3
11 -3 24 0 39 -25 56 -81 56 l-49 0 0 -250 0 -250 75 0 75 0 0 159 0 159 31
26 c23 20 41 26 78 26 l48 0 12 57 c6 31 8 60 4 64 -12 11 -55 17 -81 12z"/>
<path d="M1385 641 c-89 -41 -138 -123 -137 -232 1 -156 99 -252 257 -253 80
0 150 22 185 59 l22 24 -22 30 c-25 37 -42 38 -105 10 -85 -38 -162 -9 -184
69 l-10 32 153 0 c105 0 156 4 164 12 14 14 16 71 2 117 -27 95 -108 151 -219
151 -42 0 -80 -7 -106 -19z m168 -93 c9 -7 21 -28 26 -45 l10 -33 -95 0 c-85
0 -94 2 -94 19 0 10 11 30 25 45 19 20 33 26 68 26 24 0 51 -6 60 -12z"/>
<path d="M2195 642 c-52 -24 -111 -90 -124 -139 -40 -143 25 -292 146 -334 65
-23 173 -16 236 15 76 37 81 45 51 84 -30 37 -46 39 -105 12 -24 -11 -57 -20
-74 -20 -39 0 -93 33 -105 66 -21 54 -22 54 134 54 79 0 151 3 160 6 27 10 21
100 -10 163 -39 78 -84 104 -187 108 -65 3 -90 0 -122 -15z m160 -88 c16 -6
45 -54 45 -74 0 -6 -35 -10 -95 -10 -107 0 -114 6 -69 59 20 25 34 31 64 31
21 0 46 -3 55 -6z"/>
<path d="M3306 645 c-91 -32 -148 -123 -148 -237 0 -133 70 -222 198 -248 56
-12 142 -2 187 21 101 52 154 201 112 320 -37 105 -119 159 -240 158 -38 0
-87 -6 -109 -14z m143 -96 c55 -19 82 -110 61 -199 -14 -57 -47 -90 -91 -90
-74 0 -109 49 -109 152 0 70 24 122 63 138 30 12 39 12 76 -1z"/>
</g>
</svg>
