<?xml version="1.0" standalone="no"?>
<!DOCTYPE svg PUBLIC "-//W3C//DTD SVG 20010904//EN"
 "http://www.w3.org/TR/2001/REC-SVG-20010904/DTD/svg10.dtd">
<svg version="1.0" xmlns="http://www.w3.org/2000/svg"
 width="1000.000000pt" height="224.000000pt" viewBox="0 0 1000.000000 224.000000"
 preserveAspectRatio="xMidYMid meet">

<g transform="translate(0.000000,224.000000) scale(0.100000,-0.100000)"
fill="#000000" stroke="none">
<path d="M550 2000 c-386 -284 -457 -346 -499 -433 -49 -100 -52 -147 -49
-693 l3 -502 155 107 155 107 6 320 c4 214 10 332 19 359 38 122 97 185 348
372 l192 143 0 230 c0 127 -1 230 -2 230 -2 -1 -149 -108 -328 -240z"/>
<path d="M4632 1954 c-66 -34 -95 -102 -73 -175 24 -81 137 -117 212 -66 42
28 59 60 59 112 0 102 -110 174 -198 129z"/>
<path d="M965 1684 c-181 -134 -360 -271 -396 -306 -72 -70 -113 -141 -129
-227 -10 -53 -15 -1081 -5 -1081 6 0 482 331 595 414 189 139 254 233 269 387
4 46 5 303 2 570 l-6 485 -330 -242z"/>
<path d="M1970 1775 l0 -105 195 0 195 0 0 -565 0 -565 115 0 115 0 2 563 3
562 193 3 192 2 0 44 c0 24 3 71 6 105 l7 61 -512 0 -511 0 0 -105z"/>
<path d="M8352 1243 c3 -529 3 -539 25 -578 27 -51 68 -90 116 -110 48 -20
150 -30 211 -21 l46 7 0 97 0 97 -58 -3 c-51 -3 -63 0 -88 21 l-29 25 -3 281
-3 281 95 0 96 0 0 90 0 90 -95 0 -95 0 0 130 0 130 -110 0 -111 0 3 -537z"/>
<path d="M5393 1526 c-56 -18 -105 -50 -142 -92 l-31 -35 0 61 0 60 -105 0
-105 0 0 -490 0 -490 115 0 115 0 0 323 c0 290 2 326 19 362 35 78 113 125
207 125 85 0 143 -35 175 -105 17 -36 19 -71 19 -372 l0 -333 115 0 115 0 0
338 c0 370 -5 410 -59 507 -33 60 -104 117 -173 139 -61 19 -205 20 -265 2z"/>
<path d="M6334 1521 c-69 -25 -121 -60 -169 -112 -87 -94 -124 -187 -132 -329
-18 -316 190 -546 477 -527 99 6 178 37 235 93 25 24 48 44 52 44 3 0 3 -47 1
-103 -7 -128 -28 -182 -88 -226 -49 -35 -134 -55 -193 -46 -89 15 -169 68
-183 123 -6 21 -10 22 -121 22 l-115 0 7 -32 c12 -56 66 -146 112 -189 81 -74
206 -119 333 -119 237 0 420 139 460 350 6 31 10 258 10 551 l0 499 -105 0
-105 0 0 -65 0 -65 -36 40 c-20 22 -66 54 -102 72 -62 31 -75 33 -177 35 -87
2 -121 -1 -161 -16z m325 -209 c93 -46 142 -139 142 -268 0 -120 -46 -207
-139 -262 -41 -24 -57 -27 -132 -27 -68 0 -93 5 -126 22 -55 29 -109 94 -129
154 -19 57 -22 157 -6 214 46 171 226 248 390 167z"/>
<path d="M7485 1523 c-202 -72 -315 -251 -315 -498 0 -213 104 -397 264 -471
163 -74 369 -44 481 71 l45 47 0 -66 0 -66 105 0 105 0 0 490 0 490 -105 0
-105 0 0 -67 0 -67 -47 46 c-27 26 -75 59 -108 75 -51 23 -75 28 -165 30 -81
3 -116 -1 -155 -14z m286 -198 c214 -76 241 -452 40 -572 -217 -130 -459 70
-411 340 29 157 125 246 266 247 34 0 81 -7 105 -15z"/>
<path d="M9149 1516 c-202 -71 -320 -248 -322 -481 -1 -217 94 -386 267 -470
241 -118 541 -22 655 209 17 35 31 66 31 70 0 3 -51 6 -112 6 l-113 0 -22 -34
c-50 -77 -127 -111 -238 -104 -115 8 -194 66 -230 169 -31 86 -62 78 358 81
l372 3 3 56 c4 69 -20 184 -51 252 -54 117 -153 205 -275 246 -89 30 -233 29
-323 -3z m252 -168 c75 -22 150 -105 164 -180 l7 -38 -261 0 c-211 0 -261 3
-261 13 0 30 64 139 94 162 67 51 172 69 257 43z"/>
<path d="M2820 1517 c0 -6 317 -913 331 -950 l11 -27 108 0 108 0 108 330 c59
181 111 330 114 330 3 0 55 -148 114 -330 l108 -330 108 0 c93 0 109 2 115 18
3 9 78 222 165 473 88 250 162 463 166 472 5 15 -5 17 -109 17 l-116 0 -45
-142 c-25 -79 -73 -234 -108 -345 -34 -112 -65 -203 -69 -203 -3 0 -54 155
-114 345 l-109 345 -105 0 -106 0 -110 -345 c-60 -190 -112 -345 -115 -345 -3
0 -53 154 -111 343 l-106 342 -117 3 c-64 1 -116 1 -116 -1z"/>
<path d="M4515 1508 c-2 -7 -18 -50 -35 -96 -16 -46 -30 -85 -30 -88 0 -2 29
-4 65 -4 l65 0 0 -390 0 -390 110 0 110 0 0 490 0 490 -140 0 c-104 0 -142 -3
-145 -12z"/>
</g>
</svg>
