<svg xmlns="http://www.w3.org/2000/svg" width="13.9in" height="3.97in" viewBox="0 0 1000.48 285.48"><path d="M337.83,255.67c-10.7,15.67-29.05,29.81-53.51,29.81-23.31,0-43.18-11.85-43.18-38.22,0-41.27,52.36-59.23,95.54-68.41V155.16c0-22.55-9.17-32.86-36.69-32.86a130.09,130.09,0,0,0-49.68,10.31l-1.53-2.67c18.35-22.55,48.16-42.42,89.81-42.42,41.28,0,59.62,19.87,59.62,50.06V235.8c0,9.17,4.2,17.19,16.43,17.19a25.66,25.66,0,0,0,14.52-4.58l.77,1.53c-5.35,12.61-18.73,35.15-51.21,35.15C355.41,285.09,341.27,272.87,337.83,255.67Zm-1.15-7.26V186.88C309.55,194.14,295,209.43,295,227.39c0,14.9,8.79,24.84,25.6,24.84,6.11,0,11.47-1.14,16.05-3.82Z"/><path d="M444.83,279.75V279c6.11-18.34,9.55-34.39,9.55-66.5L454,169.3c0-28.66-5.35-44.33-19.11-60.76v-.77L514,85.61v38.21l1.53.39c10.32-16.44,30.19-36.69,64.2-36.69,33.63,0,57.32,20.63,57.32,53.12v71.45c0,32.49,3.06,48.16,9.18,66.88v.77H566.36V279c6.11-18.34,9.17-35.54,9.17-66.11v-68.4c0-16.43-8-28.28-26.37-28.28-14.14,0-26.37,8.41-33.63,18.73v77.57c0,31.72,3.05,47.78,9.17,66.5v.77Z"/><path d="M684.81,232.36V102.09h-21.4V98.65l78.73-49.3h4.2V93.68h45.48v8.41H746.34V230.83c0,22.93,12.23,30.19,27.52,30.19,13.37,0,21.4-6.12,21.78-6.5l1.15,1.15c-8.79,14.9-28.66,29.81-59.24,29.81C706.6,285.48,684.81,270.57,684.81,232.36Z"/><path d="M908.38,255.67c-10.7,15.67-29,29.81-53.5,29.81-23.32,0-43.19-11.85-43.19-38.22,0-41.27,52.36-59.23,95.54-68.41V155.16c0-22.55-9.17-32.86-36.68-32.86a130,130,0,0,0-49.69,10.31l-1.52-2.67c18.34-22.55,48.15-42.42,89.8-42.42,41.28,0,59.62,19.87,59.62,50.06V235.8c0,9.17,4.2,17.19,16.43,17.19a25.77,25.77,0,0,0,14.53-4.58l.76,1.53c-5.35,12.61-18.73,35.16-51.21,35.16C926,285.09,911.82,272.87,908.38,255.67Zm-1.15-7.26V186.88c-27.13,7.26-41.65,22.55-41.65,40.51,0,14.9,8.79,24.84,25.6,24.84C897.3,252.23,902.65,251.09,907.23,248.41Z"/><path d="M37.07,70.32C26.37,38.6,16.43,17.2,0,.77V0H119.23V.77C103.57,18.77,98.6,42,112,77.2l52,143.69L212.12,88.66c14.9-39.74,8.79-73-13.76-87.89V0h71.47V.77c-17.2,15.67-30.19,41.65-40.51,70.7L152.86,280.89H114.27Z"/></svg>